<svg width="25" height="25" viewBox="0 0 25 25" fill="none" xmlns="http://www.w3.org/2000/svg">
<mask id="mask0_1427_7" style="mask-type:alpha" maskUnits="userSpaceOnUse" x="0" y="0" width="25" height="25">
<rect x="0.342105" y="0.842163" width="24" height="24" fill="#D9D9D9"/>
</mask>
<g mask="url(#mask0_1427_7)">
<path d="M11.8171 15.3172L8.19211 11.6922C8.14211 11.6422 8.10461 11.588 8.07961 11.5297C8.05461 11.4713 8.04211 11.4088 8.04211 11.3422C8.04211 11.2088 8.08794 11.0922 8.17961 10.9922C8.27127 10.8922 8.39211 10.8422 8.54211 10.8422H16.1421C16.2921 10.8422 16.4129 10.8922 16.5046 10.9922C16.5963 11.0922 16.6421 11.2088 16.6421 11.3422C16.6421 11.3755 16.5921 11.4922 16.4921 11.6922L12.8671 15.3172C12.7838 15.4005 12.7004 15.4588 12.6171 15.4922C12.5338 15.5255 12.4421 15.5422 12.3421 15.5422C12.2421 15.5422 12.1504 15.5255 12.0671 15.4922C11.9838 15.4588 11.9004 15.4005 11.8171 15.3172Z" fill="#1C1B1F"/>
</g>
</svg>
